<svg width="88" height="63" viewBox="0 0 88 63" fill="none" xmlns="http://www.w3.org/2000/svg">
<g clip-path="url(#clip0_701_91)">
<path d="M71.0529 0.173096C76.4234 4.80721 81.794 9.44494 87.1379 14.1097C81.8657 18.8901 76.3843 23.4593 71.0297 28.1563C71.0422 25.0134 71.01 21.8721 71.0406 18.731C67.6438 18.7364 64.247 18.7114 60.852 18.742C59.2197 18.7456 57.684 19.5679 56.5845 20.7543C46.8321 30.9925 37.06 41.213 27.3112 51.4549C26.2278 52.5891 24.7171 53.3302 23.1385 53.3158C16.9369 53.3555 10.733 53.2851 4.53316 53.3571C2.22852 53.2886 0.251403 51.1825 0.253191 48.869C0.138772 46.3608 2.3306 44.1988 4.77272 44.1247C9.69809 44.0778 14.6288 44.1518 19.5542 44.0906C21.3509 44.0797 22.9331 43.0232 24.0666 41.6888C33.6706 31.6022 43.2853 21.5241 52.8947 11.4409C53.9745 10.2526 55.5263 9.52049 57.1282 9.48443C61.7655 9.46459 66.405 9.50246 71.0408 9.46622C71.0313 6.36875 71.0064 3.2711 71.0529 0.173096Z" fill="url(#paint0_linear_701_91)"/>
<path d="M3.71216 9.46298C10.4164 9.4069 17.144 9.46839 23.8588 9.44855C25.5894 9.37102 27.3521 10.0256 28.5285 11.3292C31.3191 14.2253 34.0796 17.1554 36.8542 20.0673C37.9911 21.2394 38.6152 22.9452 38.2201 24.5716C37.7892 26.5623 35.8996 28.1453 33.865 28.1257C32.4833 28.1888 31.2102 27.4783 30.1929 26.5966C28.2907 24.5518 26.4672 22.4277 24.5347 20.4099C23.4281 19.274 21.837 18.7132 20.2744 18.7348C15.2704 18.7132 10.2664 18.7492 5.26218 18.7186C3.27058 18.6573 1.14669 17.7086 0.411904 15.7145C-0.719768 13.1757 1.01081 9.95163 3.71216 9.46298Z" fill="#8C8C8C"/>
<path d="M44.615 35.3726C46.3438 33.9789 49.0541 34.1809 50.5791 35.7909C52.6688 37.9511 54.7142 40.1563 56.806 42.3147C57.8929 43.4705 59.459 44.1305 61.0377 44.1143C64.3737 44.1017 67.7095 44.1287 71.0475 44.098C71.0135 41.0128 71.035 37.9275 71.0404 34.8424C76.452 39.4657 81.8225 44.1377 87.1841 48.8205C81.8297 53.4997 76.4465 58.1447 71.0545 62.7788C70.9865 59.6232 71.0616 56.4659 71.0207 53.3104C66.3778 53.2671 61.7349 53.3066 57.092 53.2906C55.4919 53.2761 53.9509 52.5062 52.88 51.3233C49.889 48.2092 46.8498 45.1439 43.8892 42.003C42.1747 40.115 42.5555 36.8494 44.615 35.3726Z" fill="#8C8C8C"/>
</g>
<defs>
<linearGradient id="paint0_linear_701_91" x1="43.6935" y1="0.173096" x2="43.6209" y2="56.1684" gradientUnits="userSpaceOnUse">
<stop stop-color="#C12A23"/>
<stop offset="0.932655" stop-color="#102D71" stop-opacity="0.63"/>
<stop offset="0.9999" stop-color="#001AFF" stop-opacity="0.0260417"/>
<stop offset="1" stop-color="#0A3068" stop-opacity="0.66"/>
</linearGradient>
<clipPath id="clip0_701_91">
<rect width="87.2442" height="62.9302" fill="white"/>
</clipPath>
</defs>
</svg>
